 <svg xmlns="http://www.w3.org/2000/svg" shape-rendering="geometricPrecision" text-rendering="geometricPrecision" image-rendering="optimizeQuality" fill-rule="evenodd" clip-rule="evenodd" viewBox="0 0 512 350.651"><path d="M205.643 99.659c-60.187.414-89.746-3.856-107.572 45.288-4.112 11.338-7.185 22.857-7.96 34.329C-.019 214.733 14.3 192.723 0 292.233h24.825c11.466-89.391 124.109-78.55 127.565 0H284.346c1.703-15.809 8.832-29.962 19.468-40.598 12.289-12.288 29.273-19.882 47.977-19.882 18.678 0 35.602 7.602 47.893 19.863l.1.103c10.636 10.674 17.737 24.819 19.446 40.514h67.045c12.721 0 32.917-15.02 23.138-23.138l-75.066-62.33h-72.496v-52.644c-8.791 5.904-19.373 9.349-30.759 9.349a55.03 55.03 0 01-33.407-11.241v54.536h-92.042V99.659zm125.449-33.835c23.41 0 42.389 18.979 42.389 42.393 0 23.41-18.979 42.389-42.389 42.389-23.413 0-42.392-18.979-42.392-42.389 0-23.414 18.979-42.393 42.392-42.393zm0 23.55c10.405 0 18.84 8.435 18.84 18.843 0 10.404-8.435 18.839-18.84 18.839-10.408 0-18.843-8.435-18.843-18.839 0-10.408 8.435-18.843 18.843-18.843zm124.404.694h2.797V60.812l-71.962 46.132c-.333-14.75-6.451-28.081-16.17-37.8a55.275 55.275 0 00-20.693-13.053L487.836.255a3.277 3.277 0 014.287 1.753l11.216 26.709a3.276 3.276 0 01-1.253 4.019L475.297 49.91v40.158h4.026a2.04 2.04 0 012.037 2.037v18.276a2.04 2.04 0 01-2.037 2.036h-3.651v16.796c-3.306 1.886-6.379 3.992-9.116 6.412-5.656 5.006-13.794 13.645-11.802 21.599 2.673 10.68 19.832 15.411 26.983-4.557 1.456-4.067 1.726-5.317 4.437-9.013a33.794 33.794 0 013.282-3.867c1.511-1.65 3.875-1.153 4.74.639 1.219 2.545-1.251 4.537-2.031 7.093-2.184 7.138 1.011 14.278-3.04 24.286-5.943 14.678-23.608 19.498-37.425 13.864-13.361-5.451-22.043-19.327-20.204-33.807 1.776-13.984 13.873-24.569 25.87-30.801v-8.644h-1.87a2.04 2.04 0 01-2.037-2.036V92.105a2.04 2.04 0 012.037-2.037zM88.608 244.003c28.278 0 51.058 22.936 51.058 51.058 0 28.278-22.939 51.058-51.058 51.058-28.279 0-51.061-22.935-51.061-51.058 0-28.278 22.938-51.058 51.061-51.058zm0 31.421c10.838 0 19.637 8.796 19.637 19.637 0 10.841-8.799 19.638-19.637 19.638-10.841 0-19.638-8.797-19.638-19.638 0-10.841 8.797-19.637 19.638-19.637zm263.183-26.889c28.278 0 51.058 22.935 51.058 51.058 0 28.275-22.939 51.058-51.058 51.058-28.279 0-51.058-22.938-51.058-51.058 0-28.278 22.938-51.058 51.058-51.058zm0 31.417c10.841 0 19.637 8.8 19.637 19.641 0 10.841-8.796 19.635-19.637 19.635-10.842 0-19.638-8.794-19.638-19.635 0-10.841 8.796-19.641 19.638-19.641zM146.876 126.507l28.881-.473v53.242h-53.456c2.664-17.365 9.56-37.875 24.575-52.769z"/></svg>
 
  <svg id="Layer_1" data-name="Layer 1" xmlns="http://www.w3.org/2000/svg" viewBox="0 0 122.88 90.57"><defs><style>.cls-1{fill-rule:evenodd;}</style></defs><title>car-service</title><path class="cls-1" d="M0,56.71C.51,53.84,2,52.07,4.8,52a12.06,12.06,0,0,1,1.62-7.6,11.24,11.24,0,0,1,2.34-2.6c3.3-2.68,7-3,11.1-3.71s7.89-1.32,11.84-1.78c4.77-.57,9.54-.94,14.31-1.08,2.21-.06,1.68.06,3.43-1.29l.06,0L28.42,13.54c-2.71-2.82-4.86-3.07-8.46-3l-1.93,0A6,6,0,0,1,14.13,7l-.54-1.84c-.38-1.28-.54-1.81.38-3C15.41.23,18.18.14,20.38,0c4.45-.23,8,.93,11.42,5.29L54.91,29.89A162.56,162.56,0,0,1,77.16,17.11a24.7,24.7,0,0,1,6.6-2.06,22.52,22.52,0,0,0,.5,3.5c-3.17.52-4.87,1.23-9.18,3.52-4.81,2.55-9.2,5.36-13.87,8.41-1,.64-2,1.3-2.92,2v5.81h28L82.63,52.33l-.28.92-.42.35c-.69.62-1.48,1.25-2.44,2a6.42,6.42,0,0,0-.6.42A25.91,25.91,0,0,0,68.7,71.34l-.09.43H50.15c3.87-17.8-7.64-25-18.21-24C18.34,49.09,14.76,60,17.09,72H5.31C2,72.13.39,69.45,0,64.92V56.71Zm104.25,28a16.36,16.36,0,0,1-11.43,5.88C104.08,77.66,86.25,66.46,80.35,84c-4.89-7.36-2.44-15.31,4.27-20.32,3.16-2.36,4.81-3.73,5.83-5.34a11.35,11.35,0,0,0,1.28-3L97.52,33c2.31-8.27-9.07-16.21-1.11-26.56A16.36,16.36,0,0,1,107.84.55c-11.27,12.91,6.57,24.11,12.47,6.58,4.89,7.36,2.44,15.31-4.27,20.32-3,2.19-6,3.23-7.47,8.84l-5.43,21.56a11.6,11.6,0,0,0-.44,3.72,13.08,13.08,0,0,0,.85,3.47c2.48,7.08,6,12.7.7,19.65ZM35.32,59v4.87h4.87A6.66,6.66,0,0,0,35.32,59Zm4.87,8H35.32v4.87A6.66,6.66,0,0,0,40.19,67Zm-8,4.87V67H27.28a6.66,6.66,0,0,0,4.87,4.87Zm-4.87-8h4.87V59a6.67,6.67,0,0,0-4.87,4.87Zm6.46-11.93A13.52,13.52,0,1,1,20.22,65.45,13.51,13.51,0,0,1,33.74,51.94Z"/></svg>
                 
